<?xml version="1.0" standalone="no"?>
<!DOCTYPE svg PUBLIC "-//W3C//DTD SVG 20010904//EN"
 "http://www.w3.org/TR/2001/REC-SVG-20010904/DTD/svg10.dtd">
<svg version="1.0" xmlns="http://www.w3.org/2000/svg"
 width="50.000000pt" height="50.000000pt" viewBox="0 0 50.000000 50.000000"
 preserveAspectRatio="xMidYMid meet">

<g transform="translate(0.000000,50.000000) scale(0.100000,-0.100000)"
fill="#000000" stroke="none">
<path d="M80 423 c0 -22 -6 -32 -20 -36 -20 -5 -20 -12 -18 -149 l3 -143 148
-3 c100 -2 146 1 142 8 -4 6 -59 10 -141 10 l-134 0 0 130 c0 80 4 130 10 130
6 0 10 -41 10 -104 l0 -103 61 -7 c33 -4 72 -11 85 -16 13 -5 33 -6 43 -2 19
7 19 8 -5 31 -20 19 -24 20 -24 6 0 -10 -5 -15 -13 -12 -8 3 -39 8 -70 12
l-57 7 0 126 0 125 44 -6 c24 -4 55 -12 70 -18 23 -11 26 -18 26 -61 0 -26 5
-48 10 -48 6 0 10 22 10 48 0 43 3 50 26 61 15 6 46 14 70 18 l44 6 0 -121 c0
-70 4 -123 10 -127 6 -4 10 28 10 89 0 57 4 96 10 96 6 0 10 -43 10 -109 0
-63 4 -112 10 -116 6 -4 10 37 10 115 0 113 -1 122 -20 127 -14 4 -20 14 -20
36 l0 30 -55 -6 c-30 -3 -69 -12 -85 -21 -27 -13 -33 -13 -60 0 -16 9 -55 18
-85 21 l-55 6 0 -30z"/>
<path d="M230 276 c0 -2 6 -19 14 -37 15 -35 164 -188 202 -207 23 -12 44 1
44 26 0 22 -170 192 -207 208 -32 14 -53 18 -53 10z m50 -36 c0 -5 -2 -10 -4
-10 -3 0 -8 5 -11 10 -3 6 -1 10 4 10 6 0 11 -4 11 -10z m140 -144 c-14 -14
-130 101 -123 121 4 11 24 -3 69 -48 43 -42 60 -67 54 -73z m22 -28 c-7 -7
-12 -8 -12 -2 0 14 12 26 19 19 2 -3 -1 -11 -7 -17z"/>
</g>
</svg>
